<?xml version="1.0" encoding="UTF-8"?>
<svg width="800px" height="600px" viewBox="0 0 800 600" version="1.1" xmlns="http://www.w3.org/2000/svg" xmlns:xlink="http://www.w3.org/1999/xlink">
    <title>Hero Image - Vibra Energia</title>
    <defs>
        <linearGradient x1="0%" y1="0%" x2="100%" y2="100%" id="linearGradient-1">
            <stop stop-color="#006633" offset="0%"></stop>
            <stop stop-color="#009933" offset="100%"></stop>
        </linearGradient>
    </defs>
    <g id="hero-image" stroke="none" stroke-width="1" fill="none" fill-rule="evenodd">
        <!-- Background Elements -->
        <circle id="circle-1" fill="#FFCC00" opacity="0.3" cx="600" cy="200" r="80"></circle>
        <circle id="circle-2" fill="#FFCC00" opacity="0.2" cx="650" cy="300" r="120"></circle>
        
        <!-- Main Illustration -->
        <g id="training-development" transform="translate(100, 100)">
            <!-- Person 1 - Trainer -->
            <g id="trainer" transform="translate(350, 150)">
                <circle id="head" fill="#006633" cx="0" cy="-60" r="30"></circle>
                <rect id="body" fill="#006633" x="-25" y="-30" width="50" height="80" rx="10"></rect>
                <rect id="arm-left" fill="#006633" x="-60" y="-20" width="35" height="15" rx="5"></rect>
                <rect id="arm-right" fill="#006633" x="25" y="-20" width="35" height="15" rx="5"></rect>
                <rect id="leg-left" fill="#006633" x="-25" y="50" width="15" height="50" rx="5"></rect>
                <rect id="leg-right" fill="#006633" x="10" y="50" width="15" height="50" rx="5"></rect>
                <circle id="face" fill="#FFFFFF" cx="0" cy="-60" r="20"></circle>
                <circle id="eye-left" fill="#006633" cx="-7" cy="-63" r="3"></circle>
                <circle id="eye-right" fill="#006633" cx="7" cy="-63" r="3"></circle>
                <path d="M-10,-50 Q0,-45 10,-50" id="smile" stroke="#006633" stroke-width="2" fill="none"></path>
            </g>
            
            <!-- Presentation Board -->
            <g id="board" transform="translate(200, 150)">
                <rect id="board-base" fill="#FFFFFF" stroke="#006633" stroke-width="3" x="0" y="-100" width="150" height="120" rx="5"></rect>
                <rect id="board-stand" fill="#006633" x="70" y="20" width="10" height="80" rx="2"></rect>
                <rect id="board-feet" fill="#006633" x="40" y="100" width="70" height="10" rx="2"></rect>
                
                <!-- Board Content -->
                <rect id="chart-1" fill="#FFCC00" x="20" y="-80" width="30" height="40" rx="2"></rect>
                <rect id="chart-2" fill="#009933" x="60" y="-60" width="30" height="20" rx="2"></rect>
                <rect id="chart-3" fill="#0066CC" x="100" y="-70" width="30" height="30" rx="2"></rect>
                <line x1="20" y1="-30" x2="130" y2="-30" stroke="#006633" stroke-width="2"></line>
                <line x1="20" y1="-15" x2="100" y2="-15" stroke="#006633" stroke-width="2"></line>
                <line x1="20" y1="-0" x2="120" y2="-0" stroke="#006633" stroke-width="2"></line>
            </g>
            
            <!-- Students -->
            <g id="students" transform="translate(0, 200)">
                <!-- Student 1 -->
                <g id="student-1" transform="translate(50, 0)">
                    <circle id="head-1" fill="#009933" cx="0" cy="-40" r="20"></circle>
                    <rect id="body-1" fill="#009933" x="-15" y="-20" width="30" height="60" rx="8"></rect>
                    <rect id="arm-left-1" fill="#009933" x="-35" y="-10" width="20" height="10" rx="4"></rect>
                    <rect id="arm-right-1" fill="#009933" x="15" y="-10" width="20" height="10" rx="4"></rect>
                    <rect id="leg-left-1" fill="#009933" x="-15" y="40" width="10" height="40" rx="4"></rect>
                    <rect id="leg-right-1" fill="#009933" x="5" y="40" width="10" height="40" rx="4"></rect>
                </g>
                
                <!-- Student 2 -->
                <g id="student-2" transform="translate(120, 10)">
                    <circle id="head-2" fill="#0066CC" cx="0" cy="-40" r="20"></circle>
                    <rect id="body-2" fill="#0066CC" x="-15" y="-20" width="30" height="60" rx="8"></rect>
                    <rect id="arm-left-2" fill="#0066CC" x="-35" y="-10" width="20" height="10" rx="4"></rect>
                    <rect id="arm-right-2" fill="#0066CC" x="15" y="-10" width="20" height="10" rx="4"></rect>
                    <rect id="leg-left-2" fill="#0066CC" x="-15" y="40" width="10" height="40" rx="4"></rect>
                    <rect id="leg-right-2" fill="#0066CC" x="5" y="40" width="10" height="40" rx="4"></rect>
                </g>
                
                <!-- Student 3 -->
                <g id="student-3" transform="translate(190, -5)">
                    <circle id="head-3" fill="#FFCC00" cx="0" cy="-40" r="20"></circle>
                    <rect id="body-3" fill="#FFCC00" x="-15" y="-20" width="30" height="60" rx="8"></rect>
                    <rect id="arm-left-3" fill="#FFCC00" x="-35" y="-10" width="20" height="10" rx="4"></rect>
                    <rect id="arm-right-3" fill="#FFCC00" x="15" y="-10" width="20" height="10" rx="4"></rect>
                    <rect id="leg-left-3" fill="#FFCC00" x="-15" y="40" width="10" height="40" rx="4"></rect>
                    <rect id="leg-right-3" fill="#FFCC00" x="5" y="40" width="10" height="40" rx="4"></rect>
                </g>
            </g>
            
            <!-- Decorative Elements -->
            <g id="decorations">
                <circle id="decoration-1" fill="#FFCC00" opacity="0.5" cx="50" cy="50" r="20"></circle>
                <circle id="decoration-2" fill="#0066CC" opacity="0.3" cx="400" cy="50" r="15"></circle>
                <circle id="decoration-3" fill="#009933" opacity="0.4" cx="450" cy="300" r="25"></circle>
            </g>
        </g>
    </g>
</svg>
